# Blender 4.0.0
# www.blender.org
o edge_2_g
v -0.375074 -0.001563 0.156454
v 0.376768 -0.001563 0.156476
v -0.375050 -0.001563 0.216949
v -0.375102 -0.001563 0.085154
v -0.360370 -0.001563 0.005520
v -0.375157 -0.001563 -0.055592
v -0.375220 -0.001563 -0.217127
v -0.114503 -0.001563 -0.367788
v -0.027229 -0.001563 -0.391904
v 0.002513 -0.001563 -0.413039
v 0.026387 -0.001563 -0.419446
v 0.177418 -0.001563 -0.332328
v 0.293774 -0.001563 -0.248292
v 0.320440 -0.001563 -0.249829
v 0.376621 -0.001563 -0.217422
v 0.376637 -0.001563 -0.177018
v 0.362748 -0.001563 -0.102354
v 0.365331 -0.001563 -0.045404
v 0.376700 -0.001563 -0.015998
v -0.365952 -0.001563 0.222196
v -0.344117 -0.001563 0.222781
v -0.297959 -0.001563 0.249407
v -0.280359 -0.001563 0.266855
v -0.246560 -0.001563 0.270234
v -0.191385 -0.001563 0.308550
v -0.138318 -0.001563 0.337125
v -0.107993 -0.001563 0.352287
v -0.082857 -0.001563 0.377423
v -0.012020 -0.001563 0.424797
v -0.006282 -0.001563 0.420610
v 0.047401 -0.001563 0.407000
v 0.200772 -0.001563 0.318371
v 0.230909 -0.001563 0.279590
v 0.280541 -0.001563 0.272274
v 0.371202 -0.001563 0.219883
v 0.376786 -0.001563 0.202009
vn -0.0000 1.0000 -0.0000
vt 0.278376 0.041834
vt 0.084859 0.377342
vt 0.057872 0.361758
vt 0.057872 0.356348
vt 0.063233 0.346452
vt 0.063234 0.319000
vt 0.059978 0.306655
vt 0.067175 0.290699
vt 0.064286 0.256209
vt 0.065233 0.225147
vt 0.066370 0.207650
vt 0.061934 0.189769
vt 0.060686 0.144859
vt 0.063588 0.143633
vt 0.082022 0.124141
vt 0.160862 0.078678
vt 0.185925 0.075211
vt 0.201950 0.054957
vt 0.248656 0.027991
vt 0.258070 0.030101
vt 0.445186 0.346432
vt 0.436182 0.355437
vt 0.419095 0.363268
vt 0.385869 0.396006
vt 0.251528 0.473568
vt 0.179461 0.431960
vt 0.155997 0.409631
vt 0.116669 0.395707
vt 0.355323 0.086260
vt 0.365519 0.098902
vt 0.390267 0.114714
vt 0.427160 0.127735
vt 0.445186 0.138142
vt 0.445186 0.171554
vt 0.437637 0.183058
vt 0.445186 0.256612
s 1
f 2/1/1 1/2/1 3/3/1 20/4/1 21/5/1 22/6/1 23/7/1 24/8/1 25/9/1 26/10/1 27/11/1 28/12/1 29/13/1 30/14/1 31/15/1 32/16/1 33/17/1 34/18/1 35/19/1 36/20/1
f 11/21/1 10/22/1 9/23/1 8/24/1 7/25/1 6/26/1 5/27/1 4/28/1 1/2/1 2/1/1 19/29/1 18/30/1 17/31/1 16/32/1 15/33/1 14/34/1 13/35/1 12/36/1
